PathFileType	4	(X/Y/Z)	C:\Git\research_data\torsion_deformities_healthy_kinematics\simulations\P03\pre\Static01\markers_HJC.trc
DataRate	CameraRate	NumFrames	NumMarkers	Units	OrigDataRate	OrigDataStartFrame	OrigNumFrames
150	150	5	38	mm	150	113	150
Frame#	Time	C7			T10			CLAV			STRN			RBAK			SACR			LASI			RASI			LT1			LT2			LT3			LS1			LS2			LS3			LHEE			LTOE			RT1			RT2			RT3			RS1			RS2			RS3			RHEE			RTOE			LKNE			LKNM			LANK			LANM			RKNM			RKNE			RANM			RANK			LKJC			RKJC			LAJC			RAJC			LHJC			RHJC		
		X1	Y1	Z1	X2	Y2	Z2	X3	Y3	Z3	X4	Y4	Z4	X5	Y5	Z5	X6	Y6	Z6	X7	Y7	Z7	X8	Y8	Z8	X9	Y9	Z9	X10	Y10	Z10	X11	Y11	Z11	X12	Y12	Z12	X13	Y13	Z13	X14	Y14	Z14	X15	Y15	Z15	X16	Y16	Z16	X17	Y17	Z17	X18	Y18	Z18	X19	Y19	Z19	X20	Y20	Z20	X21	Y21	Z21	X22	Y22	Z22	X23	Y23	Z23	X24	Y24	Z24	X25	Y25	Z25	X26	Y26	Z26	X27	Y27	Z27	X28	Y28	Z28	X29	Y29	Z29	X30	Y30	Z30	X31	Y31	Z31	X32	Y32	Z32	X33	Y33	Z33	X34	Y34	Z34	X35	Y35	Z35	X36	Y36	Z36	X37	Y37	Z37	X38	Y38	Z38	

113	0.746667	446.387695	1273.632202	-967.196899	444.111023	1094.756714	-915.021118	432.099976	1209.760864	-1097.200073	427.378784	1156.280762	-1128.630859	542.906921	1175.677490	-933.051086	428.578735	874.782715	-915.102722	278.100067	870.615234	-1072.054932	521.511108	876.183655	-1122.424561	242.249069	585.992065	-1128.260498	229.520493	474.200806	-1079.701172	275.754578	531.655334	-1203.122070	282.094513	217.043030	-1033.143555	342.162933	148.656082	-950.241333	254.018860	131.495148	-1062.009155	367.938049	41.807922	-973.758911	262.138367	41.303326	-1083.037231	592.268555	605.751648	-1132.963013	585.218933	506.743439	-1057.731201	583.007507	533.383240	-1199.050171	587.118164	266.028625	-1091.416260	562.148743	217.289368	-982.996216	582.328125	175.524521	-1118.066772	500.040253	44.987354	-981.857117	570.386780	41.890881	-1123.405273	267.019501	432.551239	-1147.854736	366.636658	421.608765	-1163.906860	304.781738	49.597336	-994.133545	356.797699	47.256107	-1044.829712	466.162781	423.102753	-1167.840698	568.779785	438.748230	-1167.493652	490.500580	52.748436	-1062.764526	552.194397	47.682499	-1019.144348	316.828064	427.080017	-1155.880859	517.471252	430.925476	-1167.667114	330.789703	48.426720	-1019.481689	521.347473	50.215469	-1040.954468	325.320093	786.397836	-1025.776604	500.264895	790.399981	-1061.978350	
114	0.753333	446.338074	1273.607178	-967.165771	443.938751	1094.710205	-914.983093	432.165039	1209.692139	-1097.154175	427.437897	1156.192627	-1128.583374	542.768982	1175.565063	-932.901672	428.590607	874.811218	-915.203308	278.012817	870.536377	-1072.122314	521.422668	876.157104	-1122.600586	242.247391	585.946106	-1128.340454	229.535492	474.143555	-1079.771729	275.787018	531.615601	-1203.190918	282.103027	217.022049	-1033.210938	342.162903	148.641800	-950.294373	254.043152	131.463608	-1062.076904	367.951721	41.809631	-973.764893	262.166077	41.315125	-1083.059814	592.285889	605.736145	-1132.975952	585.153625	506.761444	-1057.712036	583.086060	533.345032	-1199.042236	587.142761	266.028046	-1091.409058	562.164978	217.296860	-983.023682	582.347046	175.519058	-1118.072266	500.030762	44.986847	-981.858337	570.379944	41.900665	-1123.406128	267.040466	432.523376	-1147.933838	366.654358	421.578491	-1163.938599	304.808990	49.607655	-994.152771	356.819885	47.221664	-1044.850464	466.207825	423.078766	-1167.925415	568.815857	438.739899	-1167.496948	490.491302	52.753334	-1062.764771	552.189209	47.690014	-1019.138794	316.847412	427.050934	-1155.936279	517.511841	430.909332	-1167.711182	330.814453	48.414658	-1019.501587	521.340271	50.221676	-1040.951782	325.282682	786.344754	-1025.822510	500.225361	790.384464	-1062.102077	
115	0.760000	446.294830	1273.582642	-967.128540	443.763306	1094.659790	-914.949707	432.233704	1209.626343	-1097.104980	427.501587	1156.103027	-1128.529663	542.628479	1175.447144	-932.742065	428.597687	874.845032	-915.302490	277.917511	870.458130	-1072.190552	521.325500	876.134338	-1122.784180	242.246475	585.900635	-1128.415771	229.565048	474.095978	-1079.829956	275.817780	531.575134	-1203.257568	282.113800	217.006012	-1033.276123	342.166962	148.631516	-950.354431	254.067200	131.436768	-1062.140137	367.964111	41.813099	-973.770935	262.192902	41.326893	-1083.083008	592.301086	605.720764	-1132.984131	585.082092	506.778320	-1057.686646	583.162476	533.312378	-1199.030151	587.165833	266.026642	-1091.397461	562.176880	217.305893	-983.047974	582.364502	175.513336	-1118.079468	500.019745	44.986271	-981.858032	570.370117	41.911480	-1123.406616	267.068176	432.503113	-1148.000000	366.683655	421.557617	-1163.963135	304.833496	49.619251	-994.171265	356.841064	47.188183	-1044.869873	466.253845	423.056213	-1168.008179	568.853821	438.734131	-1167.496704	490.479462	52.755505	-1062.763672	552.181763	47.699585	-1019.131531	316.875916	427.030365	-1155.981567	517.553833	430.895172	-1167.752441	330.837280	48.403717	-1019.520508	521.330566	50.227547	-1040.947510	325.240246	786.293496	-1025.867923	500.180272	790.373050	-1062.230125	
116	0.766667	446.264496	1273.557251	-967.089050	443.590027	1094.605469	-914.923706	432.305237	1209.565918	-1097.055176	427.568878	1156.016968	-1128.474731	542.492126	1175.323975	-932.582275	428.600830	874.880920	-915.402283	277.820251	870.382446	-1072.256714	521.223816	876.116455	-1122.971069	242.249298	585.857361	-1128.486084	229.606186	474.057892	-1079.881592	275.851227	531.535034	-1203.323730	282.126801	216.993698	-1033.337891	342.172302	148.625641	-950.419739	254.091064	131.415741	-1062.198975	367.975464	41.817379	-973.777832	262.219330	41.337666	-1083.105591	592.312988	605.706482	-1132.990723	585.009033	506.793213	-1057.659058	583.233276	533.283569	-1199.015869	587.185425	266.023956	-1091.385376	562.181274	217.316864	-983.067261	582.379089	175.506577	-1118.087769	500.007294	44.985691	-981.856140	570.357605	41.922718	-1123.406738	267.107422	432.483002	-1148.050049	366.731262	421.544342	-1163.985840	304.854553	49.631355	-994.190125	356.861176	47.156460	-1044.887207	466.298248	423.033875	-1168.088745	568.890808	438.731201	-1167.494995	490.465637	52.754375	-1062.759766	552.172241	47.710693	-1019.122864	316.919342	427.013672	-1156.017944	517.594543	430.882538	-1167.791870	330.857880	48.393909	-1019.538635	521.318909	50.232533	-1040.941406	325.197367	786.245119	-1025.913204	500.132972	790.366186	-1062.361916	
117	0.773333	446.250854	1273.528687	-967.050415	443.423126	1094.548340	-914.904236	432.379150	1209.513184	-1097.006836	427.638641	1155.940186	-1128.425903	542.365784	1175.196655	-932.429626	428.601257	874.915039	-915.504150	277.727417	870.312561	-1072.319580	521.122498	876.104004	-1123.156006	242.258972	585.818542	-1128.553223	229.655228	474.028259	-1079.934204	275.890381	531.496643	-1203.390137	282.142456	216.983093	-1033.396362	342.177002	148.623642	-950.485901	254.114212	131.400925	-1062.254150	367.985687	41.821857	-973.785522	262.245087	41.346786	-1083.126221	592.320740	605.693359	-1132.999634	584.939087	506.805298	-1057.635620	583.294556	533.257080	-1199.002686	587.199768	266.019470	-1091.376953	562.177124	217.329132	-983.082275	582.389038	175.498306	-1118.096924	499.993652	44.985176	-981.852844	570.342957	41.933575	-1123.406860	267.163422	432.455231	-1148.084717	366.796844	421.535095	-1164.013916	304.872589	49.642342	-994.209106	356.880249	47.127220	-1044.902344	466.336548	423.012573	-1168.165771	568.923889	438.729767	-1167.495239	490.450287	52.750065	-1062.753540	552.161499	47.722839	-1019.113647	316.980133	426.995148	-1156.049316	517.630249	430.871155	-1167.830444	330.876404	48.384781	-1019.555664	521.305908	50.236454	-1040.933594	325.157701	786.201429	-1025.960052	500.086177	790.363749	-1062.496281	
